<?xml version="1.0" encoding="utf-8" ?>
<svg baseProfile="tiny" height="116.085823934" version="1.2" width="240.101568934" xmlns="http://www.w3.org/2000/svg" xmlns:ev="http://www.w3.org/2001/xml-events" xmlns:xlink="http://www.w3.org/1999/xlink"><defs /><g id="paths" stroke="green"><path d="M 4.893306967,111.192516967 L 235.208261967,111.192516967 L 235.208261967,4.893306967 L 4.893306967,4.893306967 L 4.893306967,111.192516967 Z" fill-opacity="0" stroke-linejoin="round" stroke-width="1.0" /></g><g fill="red" id="top_parts" stroke="red"><line stroke-linecap="round" stroke-width="0.5" x1="74.003" x2="98.8491" y1="35.1886" y2="35.1886" /><line stroke-linecap="round" stroke-width="0.5" x1="98.8491" x2="98.8491" y1="35.1886" y2="64.598" /><line stroke-linecap="round" stroke-width="0.5" x1="98.8491" x2="74.003" y1="64.598" y2="64.598" /><line stroke-linecap="round" stroke-width="0.5" x1="74.003" x2="74.003" y1="64.598" y2="35.1886" /><text font-family="monospace" font-size="2" stroke-width="0.1" text-anchor="middle" x="86.426058911" y="49.8933094103">M17:U63</text><line stroke-linecap="round" stroke-width="0.5" x1="26.0616" x2="38.1173" y1="56.6091" y2="56.6091" /><line stroke-linecap="round" stroke-width="0.5" x1="38.1173" x2="38.1173" y1="56.6091" y2="75.5658" /><line stroke-linecap="round" stroke-width="0.5" x1="38.1173" x2="26.0616" y1="75.5658" y2="75.5658" /><line stroke-linecap="round" stroke-width="0.5" x1="26.0616" x2="26.0616" y1="75.5658" y2="56.6091" /><text font-family="monospace" font-size="2" stroke-width="0.1" text-anchor="middle" x="32.089446066" y="66.0874731877">M10:RG1</text><line stroke-linecap="round" stroke-width="0.5" x1="174.6544" x2="163.9511" y1="44.3421" y2="44.3421" /><line stroke-linecap="round" stroke-width="0.5" x1="163.9511" x2="163.9511" y1="44.3421" y2="39.0271" /><line stroke-linecap="round" stroke-width="0.5" x1="163.9511" x2="174.6544" y1="39.0271" y2="39.0271" /><line stroke-linecap="round" stroke-width="0.5" x1="174.6544" x2="174.6544" y1="39.0271" y2="44.3421" /><text font-family="monospace" font-size="2" stroke-width="0.1" text-anchor="middle" x="169.302751767" y="41.6845761464">M20:C3</text><line stroke-linecap="round" stroke-width="0.5" x1="110.432" x2="110.432" y1="74.3054" y2="85.0087" /><line stroke-linecap="round" stroke-width="0.5" x1="110.432" x2="105.117" y1="85.0087" y2="85.0087" /><line stroke-linecap="round" stroke-width="0.5" x1="105.117" x2="105.117" y1="85.0087" y2="74.3054" /><line stroke-linecap="round" stroke-width="0.5" x1="105.117" x2="110.432" y1="74.3054" y2="74.3054" /><text font-family="monospace" font-size="2" stroke-width="0.1" text-anchor="middle" x="107.774483586" y="79.6570882103">M17:C9</text><line stroke-linecap="round" stroke-width="0.5" x1="138.3874" x2="138.3874" y1="45.1984" y2="55.9017" /><line stroke-linecap="round" stroke-width="0.5" x1="138.3874" x2="133.0724" y1="55.9017" y2="55.9017" /><line stroke-linecap="round" stroke-width="0.5" x1="133.0724" x2="133.0724" y1="55.9017" y2="45.1984" /><line stroke-linecap="round" stroke-width="0.5" x1="133.0724" x2="138.3874" y1="45.1984" y2="45.1984" /><text font-family="monospace" font-size="2" stroke-width="0.1" text-anchor="middle" x="135.729917942" y="50.550075536">M4:C1</text><line stroke-linecap="round" stroke-width="0.5" x1="158.2788" x2="187.5905" y1="9.8674" y2="9.8674" /><line stroke-linecap="round" stroke-width="0.5" x1="187.5905" x2="187.5905" y1="9.8674" y2="21.1791" /><line stroke-linecap="round" stroke-width="0.5" x1="187.5905" x2="158.2788" y1="21.1791" y2="21.1791" /><line stroke-linecap="round" stroke-width="0.5" x1="158.2788" x2="158.2788" y1="21.1791" y2="9.8674" /><text font-family="monospace" font-size="2" stroke-width="0.1" text-anchor="middle" x="172.934641442" y="15.523227967">J2</text><line stroke-linecap="round" stroke-width="0.5" x1="209.1295" x2="209.1295" y1="25.9688" y2="36.6721" /><line stroke-linecap="round" stroke-width="0.5" x1="209.1295" x2="203.8146" y1="36.6721" y2="36.6721" /><line stroke-linecap="round" stroke-width="0.5" x1="203.8146" x2="203.8146" y1="36.6721" y2="25.9688" /><line stroke-linecap="round" stroke-width="0.5" x1="203.8146" x2="209.1295" y1="25.9688" y2="25.9688" /><text font-family="monospace" font-size="2" stroke-width="0.1" text-anchor="middle" x="206.472042197" y="31.3204031714">M21:R3</text><line stroke-linecap="round" stroke-width="0.5" x1="188.4366" x2="188.4366" y1="53.0975" y2="63.8008" /><line stroke-linecap="round" stroke-width="0.5" x1="188.4366" x2="183.1216" y1="63.8008" y2="63.8008" /><line stroke-linecap="round" stroke-width="0.5" x1="183.1216" x2="183.1216" y1="63.8008" y2="53.0975" /><line stroke-linecap="round" stroke-width="0.5" x1="183.1216" x2="188.4366" y1="53.0975" y2="53.0975" /><text font-family="monospace" font-size="2" stroke-width="0.1" text-anchor="middle" x="185.779129317" y="58.449134398">M20:R2</text><line stroke-linecap="round" stroke-width="0.5" x1="17.5606" x2="17.5606" y1="60.3461" y2="47.2358" /><line stroke-linecap="round" stroke-width="0.5" x1="17.5606" x2="23.4071" y1="47.2358" y2="47.2358" /><line stroke-linecap="round" stroke-width="0.5" x1="23.4071" x2="23.4071" y1="47.2358" y2="60.3461" /><line stroke-linecap="round" stroke-width="0.5" x1="23.4071" x2="17.5606" y1="60.3461" y2="60.3461" /><text font-family="monospace" font-size="2" stroke-width="0.1" text-anchor="middle" x="20.483857767" y="53.790943567">M10:FB1</text><line stroke-linecap="round" stroke-width="0.5" x1="228.4405" x2="228.4405" y1="64.2732" y2="77.3834" /><line stroke-linecap="round" stroke-width="0.5" x1="228.4405" x2="222.5941" y1="77.3834" y2="77.3834" /><line stroke-linecap="round" stroke-width="0.5" x1="222.5941" x2="222.5941" y1="77.3834" y2="64.2732" /><line stroke-linecap="round" stroke-width="0.5" x1="222.5941" x2="228.4405" y1="64.2732" y2="64.2732" /><text font-family="monospace" font-size="2" stroke-width="0.1" text-anchor="middle" x="225.517317322" y="70.8282762214">M21:FB14</text><line stroke-linecap="round" stroke-width="0.5" x1="70.695" x2="59.9917" y1="75.6709" y2="75.6709" /><line stroke-linecap="round" stroke-width="0.5" x1="59.9917" x2="59.9917" y1="75.6709" y2="70.3559" /><line stroke-linecap="round" stroke-width="0.5" x1="59.9917" x2="70.695" y1="70.3559" y2="70.3559" /><line stroke-linecap="round" stroke-width="0.5" x1="70.695" x2="70.695" y1="70.3559" y2="75.6709" /><text font-family="monospace" font-size="2" stroke-width="0.1" text-anchor="middle" x="65.343382261" y="73.013384042">M17:C4</text><line stroke-linecap="round" stroke-width="0.5" x1="162.3933" x2="162.3933" y1="46.5718" y2="57.2751" /><line stroke-linecap="round" stroke-width="0.5" x1="162.3933" x2="157.0783" y1="57.2751" y2="57.2751" /><line stroke-linecap="round" stroke-width="0.5" x1="157.0783" x2="157.0783" y1="57.2751" y2="46.5718" /><line stroke-linecap="round" stroke-width="0.5" x1="157.0783" x2="162.3933" y1="46.5718" y2="46.5718" /><text font-family="monospace" font-size="2" stroke-width="0.1" text-anchor="middle" x="159.735822867" y="51.9234755024">M20:R7</text><line stroke-linecap="round" stroke-width="0.5" x1="75.2646" x2="85.9679" y1="70.3559" y2="70.3559" /><line stroke-linecap="round" stroke-width="0.5" x1="85.9679" x2="85.9679" y1="70.3559" y2="75.6709" /><line stroke-linecap="round" stroke-width="0.5" x1="85.9679" x2="75.2646" y1="75.6709" y2="75.6709" /><line stroke-linecap="round" stroke-width="0.5" x1="75.2646" x2="75.2646" y1="75.6709" y2="70.3559" /><text font-family="monospace" font-size="2" stroke-width="0.1" text-anchor="middle" x="80.616293305" y="73.013384042">M17:C5</text><line stroke-linecap="round" stroke-width="0.5" x1="145.4947" x2="116.1831" y1="21.1791" y2="21.1791" /><line stroke-linecap="round" stroke-width="0.5" x1="116.1831" x2="116.1831" y1="21.1791" y2="9.8674" /><line stroke-linecap="round" stroke-width="0.5" x1="116.1831" x2="145.4947" y1="9.8674" y2="9.8674" /><line stroke-linecap="round" stroke-width="0.5" x1="145.4947" x2="145.4947" y1="9.8674" y2="21.1791" /><text font-family="monospace" font-size="2" stroke-width="0.1" text-anchor="middle" x="130.838896408" y="15.523227967">J1</text><line stroke-linecap="round" stroke-width="0.5" x1="87.8978" x2="77.1945" y1="22.4327" y2="22.4327" /><line stroke-linecap="round" stroke-width="0.5" x1="77.1945" x2="77.1945" y1="22.4327" y2="17.1177" /><line stroke-linecap="round" stroke-width="0.5" x1="77.1945" x2="87.8978" y1="17.1177" y2="17.1177" /><line stroke-linecap="round" stroke-width="0.5" x1="87.8978" x2="87.8978" y1="17.1177" y2="22.4327" /><text font-family="monospace" font-size="2" stroke-width="0.1" text-anchor="middle" x="82.546137746" y="19.775196367">D2</text><line stroke-linecap="round" stroke-width="0.5" x1="216.3591" x2="216.3591" y1="32.6125" y2="43.3158" /><line stroke-linecap="round" stroke-width="0.5" x1="216.3591" x2="211.0442" y1="43.3158" y2="43.3158" /><line stroke-linecap="round" stroke-width="0.5" x1="211.0442" x2="211.0442" y1="43.3158" y2="32.6125" /><line stroke-linecap="round" stroke-width="0.5" x1="211.0442" x2="216.3591" y1="32.6125" y2="32.6125" /><text font-family="monospace" font-size="2" stroke-width="0.1" text-anchor="middle" x="213.701646351" y="37.9641037964">M21:R1</text><line stroke-linecap="round" stroke-width="0.5" x1="65.2548" x2="65.2548" y1="64.7955" y2="54.0922" /><line stroke-linecap="round" stroke-width="0.5" x1="65.2548" x2="70.5698" y1="54.0922" y2="54.0922" /><line stroke-linecap="round" stroke-width="0.5" x1="70.5698" x2="70.5698" y1="54.0922" y2="64.7955" /><line stroke-linecap="round" stroke-width="0.5" x1="70.5698" x2="65.2548" y1="64.7955" y2="64.7955" /><text font-family="monospace" font-size="2" stroke-width="0.1" text-anchor="middle" x="67.912279836" y="59.4438753186">M17:R1</text><line stroke-linecap="round" stroke-width="0.5" x1="185.6387" x2="174.9354" y1="77.6491" y2="77.6491" /><line stroke-linecap="round" stroke-width="0.5" x1="174.9354" x2="174.9354" y1="77.6491" y2="72.3342" /><line stroke-linecap="round" stroke-width="0.5" x1="174.9354" x2="185.6387" y1="72.3342" y2="72.3342" /><line stroke-linecap="round" stroke-width="0.5" x1="185.6387" x2="185.6387" y1="72.3342" y2="77.6491" /><text font-family="monospace" font-size="2" stroke-width="0.1" text-anchor="middle" x="180.287003467" y="74.9916619464">M20:C4</text><line stroke-linecap="round" stroke-width="0.5" x1="107.386" x2="96.6827" y1="22.4327" y2="22.4327" /><line stroke-linecap="round" stroke-width="0.5" x1="96.6827" x2="96.6827" y1="22.4327" y2="17.1177" /><line stroke-linecap="round" stroke-width="0.5" x1="96.6827" x2="107.386" y1="17.1177" y2="17.1177" /><line stroke-linecap="round" stroke-width="0.5" x1="107.386" x2="107.386" y1="17.1177" y2="22.4327" /><text font-family="monospace" font-size="2" stroke-width="0.1" text-anchor="middle" x="102.034322703" y="19.775196367">D1</text><line stroke-linecap="round" stroke-width="0.5" x1="118.6335" x2="118.6335" y1="44.0987" y2="54.802" /><line stroke-linecap="round" stroke-width="0.5" x1="118.6335" x2="113.3185" y1="54.802" y2="54.802" /><line stroke-linecap="round" stroke-width="0.5" x1="113.3185" x2="113.3185" y1="54.802" y2="44.0987" /><line stroke-linecap="round" stroke-width="0.5" x1="113.3185" x2="118.6335" y1="44.0987" y2="44.0987" /><text font-family="monospace" font-size="2" stroke-width="0.1" text-anchor="middle" x="115.975981417" y="49.450392492">M5:C1</text><line stroke-linecap="round" stroke-width="0.5" x1="195.8421" x2="195.8421" y1="46.5718" y2="57.2751" /><line stroke-linecap="round" stroke-width="0.5" x1="195.8421" x2="190.5272" y1="57.2751" y2="57.2751" /><line stroke-linecap="round" stroke-width="0.5" x1="190.5272" x2="190.5272" y1="57.2751" y2="46.5718" /><line stroke-linecap="round" stroke-width="0.5" x1="190.5272" x2="195.8421" y1="46.5718" y2="46.5718" /><text font-family="monospace" font-size="2" stroke-width="0.1" text-anchor="middle" x="193.184640947" y="51.9234755024">M21:R7</text><text font-family="monospace" font-size="2" stroke-width="0.1" text-anchor="middle" x="50.2299235753" y="33.7915905126">X1</text><line stroke-linecap="round" stroke-width="0.5" x1="208.1032" x2="197.3999" y1="44.3421" y2="44.3421" /><line stroke-linecap="round" stroke-width="0.5" x1="197.3999" x2="197.3999" y1="44.3421" y2="39.0271" /><line stroke-linecap="round" stroke-width="0.5" x1="197.3999" x2="208.1032" y1="39.0271" y2="39.0271" /><line stroke-linecap="round" stroke-width="0.5" x1="208.1032" x2="208.1032" y1="39.0271" y2="44.3421" /><text font-family="monospace" font-size="2" stroke-width="0.1" text-anchor="middle" x="202.751569847" y="41.6845761464">M21:C3</text><line stroke-linecap="round" stroke-width="0.5" x1="162.6236" x2="173.3269" y1="72.3342" y2="72.3342" /><line stroke-linecap="round" stroke-width="0.5" x1="173.3269" x2="173.3269" y1="72.3342" y2="77.6491" /><line stroke-linecap="round" stroke-width="0.5" x1="173.3269" x2="162.6236" y1="77.6491" y2="77.6491" /><line stroke-linecap="round" stroke-width="0.5" x1="162.6236" x2="162.6236" y1="77.6491" y2="72.3342" /><text font-family="monospace" font-size="2" stroke-width="0.1" text-anchor="middle" x="167.975269516" y="74.9916619464">M20:C2</text><line stroke-linecap="round" stroke-width="0.5" x1="168.665" x2="168.665" y1="25.9688" y2="36.6721" /><line stroke-linecap="round" stroke-width="0.5" x1="168.665" x2="163.35" y1="36.6721" y2="36.6721" /><line stroke-linecap="round" stroke-width="0.5" x1="163.35" x2="163.35" y1="36.6721" y2="25.9688" /><line stroke-linecap="round" stroke-width="0.5" x1="163.35" x2="168.665" y1="25.9688" y2="25.9688" /><text font-family="monospace" font-size="2" stroke-width="0.1" text-anchor="middle" x="166.007476257" y="31.3204031714">M20:R4</text><line stroke-linecap="round" stroke-width="0.5" x1="185.1957" x2="185.1957" y1="43.3158" y2="32.6125" /><line stroke-linecap="round" stroke-width="0.5" x1="185.1957" x2="190.5107" y1="32.6125" y2="32.6125" /><line stroke-linecap="round" stroke-width="0.5" x1="190.5107" x2="190.5107" y1="32.6125" y2="43.3158" /><line stroke-linecap="round" stroke-width="0.5" x1="190.5107" x2="185.1957" y1="43.3158" y2="43.3158" /><text font-family="monospace" font-size="2" stroke-width="0.1" text-anchor="middle" x="187.853221786" y="37.9641037964">M20:C1</text><line stroke-linecap="round" stroke-width="0.5" x1="221.8854" x2="221.8854" y1="53.0975" y2="63.8008" /><line stroke-linecap="round" stroke-width="0.5" x1="221.8854" x2="216.5705" y1="63.8008" y2="63.8008" /><line stroke-linecap="round" stroke-width="0.5" x1="216.5705" x2="216.5705" y1="63.8008" y2="53.0975" /><line stroke-linecap="round" stroke-width="0.5" x1="216.5705" x2="221.8854" y1="53.0975" y2="53.0975" /><text font-family="monospace" font-size="2" stroke-width="0.1" text-anchor="middle" x="219.227947397" y="58.449134398">M21:R2</text><line stroke-linecap="round" stroke-width="0.5" x1="87.8978" x2="77.1945" y1="15.4346" y2="15.4346" /><line stroke-linecap="round" stroke-width="0.5" x1="77.1945" x2="77.1945" y1="15.4346" y2="10.1197" /><line stroke-linecap="round" stroke-width="0.5" x1="77.1945" x2="87.8978" y1="10.1197" y2="10.1197" /><line stroke-linecap="round" stroke-width="0.5" x1="87.8978" x2="87.8978" y1="10.1197" y2="15.4346" /><text font-family="monospace" font-size="2" stroke-width="0.1" text-anchor="middle" x="82.5461342027" y="12.777165042">R2</text><line stroke-linecap="round" stroke-width="0.5" x1="7.1213" x2="18.433" y1="61.9907" y2="61.9907" /><line stroke-linecap="round" stroke-width="0.5" x1="18.433" x2="18.433" y1="61.9907" y2="109.3024" /><line stroke-linecap="round" stroke-width="0.5" x1="18.433" x2="7.1213" y1="109.3024" y2="109.3024" /><line stroke-linecap="round" stroke-width="0.5" x1="7.1213" x2="7.1213" y1="109.3024" y2="61.9907" /><text font-family="monospace" font-size="2" stroke-width="0.1" text-anchor="middle" x="12.777165042" y="85.6465278277">J5</text><line stroke-linecap="round" stroke-width="0.5" x1="196.0724" x2="206.7757" y1="72.3342" y2="72.3342" /><line stroke-linecap="round" stroke-width="0.5" x1="206.7757" x2="206.7757" y1="72.3342" y2="77.6491" /><line stroke-linecap="round" stroke-width="0.5" x1="206.7757" x2="196.0724" y1="77.6491" y2="77.6491" /><line stroke-linecap="round" stroke-width="0.5" x1="196.0724" x2="196.0724" y1="77.6491" y2="72.3342" /><text font-family="monospace" font-size="2" stroke-width="0.1" text-anchor="middle" x="201.424087596" y="74.9916619464">M21:C2</text><line stroke-linecap="round" stroke-width="0.5" x1="192.5603" x2="221.872" y1="9.8674" y2="9.8674" /><line stroke-linecap="round" stroke-width="0.5" x1="221.872" x2="221.872" y1="9.8674" y2="21.1791" /><line stroke-linecap="round" stroke-width="0.5" x1="221.872" x2="192.5603" y1="21.1791" y2="21.1791" /><line stroke-linecap="round" stroke-width="0.5" x1="192.5603" x2="192.5603" y1="21.1791" y2="9.8674" /><text font-family="monospace" font-size="2" stroke-width="0.1" text-anchor="middle" x="207.216136667" y="15.523227967">J3</text><line stroke-linecap="round" stroke-width="0.5" x1="181.7929" x2="181.7929" y1="46.5456" y2="70.3078" /><line stroke-linecap="round" stroke-width="0.5" x1="181.7929" x2="163.722" y1="70.3078" y2="70.3078" /><line stroke-linecap="round" stroke-width="0.5" x1="163.722" x2="163.722" y1="70.3078" y2="46.5456" /><line stroke-linecap="round" stroke-width="0.5" x1="163.722" x2="181.7929" y1="46.5456" y2="46.5456" /><text font-family="monospace" font-size="2" stroke-width="0.1" text-anchor="middle" x="172.757476092" y="58.4267052647">M20:U1</text><line stroke-linecap="round" stroke-width="0.5" x1="26.9162" x2="37.6195" y1="46.9701" y2="46.9701" /><line stroke-linecap="round" stroke-width="0.5" x1="37.6195" x2="37.6195" y1="46.9701" y2="52.285" /><line stroke-linecap="round" stroke-width="0.5" x1="37.6195" x2="26.9162" y1="52.285" y2="52.285" /><line stroke-linecap="round" stroke-width="0.5" x1="26.9162" x2="26.9162" y1="52.285" y2="46.9701" /><text font-family="monospace" font-size="2" stroke-width="0.1" text-anchor="middle" x="32.26786929" y="49.6275542987">M10:C1</text><line stroke-linecap="round" stroke-width="0.5" x1="91.1576" x2="101.8609" y1="79.3546" y2="79.3546" /><line stroke-linecap="round" stroke-width="0.5" x1="101.8609" x2="101.8609" y1="79.3546" y2="84.6696" /><line stroke-linecap="round" stroke-width="0.5" x1="101.8609" x2="91.1576" y1="84.6696" y2="84.6696" /><line stroke-linecap="round" stroke-width="0.5" x1="91.1576" x2="91.1576" y1="84.6696" y2="79.3546" /><text font-family="monospace" font-size="2" stroke-width="0.1" text-anchor="middle" x="96.509283074" y="82.012125948">M17:C7</text><text font-family="monospace" font-size="2" stroke-width="0.1" text-anchor="middle" x="144.145272067" y="72.570470667">U1</text><line stroke-linecap="round" stroke-width="0.5" x1="118.6335" x2="118.6335" y1="24.7877" y2="35.491" /><line stroke-linecap="round" stroke-width="0.5" x1="118.6335" x2="113.3185" y1="35.491" y2="35.491" /><line stroke-linecap="round" stroke-width="0.5" x1="113.3185" x2="113.3185" y1="35.491" y2="24.7877" /><line stroke-linecap="round" stroke-width="0.5" x1="113.3185" x2="118.6335" y1="24.7877" y2="24.7877" /><text font-family="monospace" font-size="2" stroke-width="0.1" text-anchor="middle" x="115.975981417" y="30.139369342">M5:R2</text><line stroke-linecap="round" stroke-width="0.5" x1="105.117" x2="105.117" y1="72.039" y2="61.3357" /><line stroke-linecap="round" stroke-width="0.5" x1="105.117" x2="110.432" y1="61.3357" y2="61.3357" /><line stroke-linecap="round" stroke-width="0.5" x1="110.432" x2="110.432" y1="61.3357" y2="72.039" /><line stroke-linecap="round" stroke-width="0.5" x1="110.432" x2="105.117" y1="72.039" y2="72.039" /><text font-family="monospace" font-size="2" stroke-width="0.1" text-anchor="middle" x="107.774483586" y="66.6873196297">M17:C12</text><line stroke-linecap="round" stroke-width="0.5" x1="120.9733" x2="120.9733" y1="74.3054" y2="85.0087" /><line stroke-linecap="round" stroke-width="0.5" x1="120.9733" x2="115.6583" y1="85.0087" y2="85.0087" /><line stroke-linecap="round" stroke-width="0.5" x1="115.6583" x2="115.6583" y1="85.0087" y2="74.3054" /><line stroke-linecap="round" stroke-width="0.5" x1="115.6583" x2="120.9733" y1="74.3054" y2="74.3054" /><text font-family="monospace" font-size="2" stroke-width="0.1" text-anchor="middle" x="118.315821911" y="79.6570882103">M17:C11</text><line stroke-linecap="round" stroke-width="0.5" x1="120.6709" x2="120.6709" y1="54.802" y2="44.0987" /><line stroke-linecap="round" stroke-width="0.5" x1="120.6709" x2="125.9858" y1="44.0987" y2="44.0987" /><line stroke-linecap="round" stroke-width="0.5" x1="125.9858" x2="125.9858" y1="44.0987" y2="54.802" /><line stroke-linecap="round" stroke-width="0.5" x1="125.9858" x2="120.6709" y1="54.802" y2="54.802" /><text font-family="monospace" font-size="2" stroke-width="0.1" text-anchor="middle" x="123.328343442" y="49.450392492">M5:R1</text><line stroke-linecap="round" stroke-width="0.5" x1="91.1576" x2="101.8609" y1="70.3559" y2="70.3559" /><line stroke-linecap="round" stroke-width="0.5" x1="101.8609" x2="101.8609" y1="70.3559" y2="75.6709" /><line stroke-linecap="round" stroke-width="0.5" x1="101.8609" x2="91.1576" y1="75.6709" y2="75.6709" /><line stroke-linecap="round" stroke-width="0.5" x1="91.1576" x2="91.1576" y1="75.6709" y2="70.3559" /><text font-family="monospace" font-size="2" stroke-width="0.1" text-anchor="middle" x="96.509283074" y="73.013384042">M17:C8</text><line stroke-linecap="round" stroke-width="0.5" x1="145.7398" x2="145.7398" y1="25.8874" y2="36.5907" /><line stroke-linecap="round" stroke-width="0.5" x1="145.7398" x2="140.4248" y1="36.5907" y2="36.5907" /><line stroke-linecap="round" stroke-width="0.5" x1="140.4248" x2="140.4248" y1="36.5907" y2="25.8874" /><line stroke-linecap="round" stroke-width="0.5" x1="140.4248" x2="145.7398" y1="25.8874" y2="25.8874" /><text font-family="monospace" font-size="2" stroke-width="0.1" text-anchor="middle" x="143.082279967" y="31.239052386">M4:C2</text><line stroke-linecap="round" stroke-width="0.5" x1="175.6807" x2="175.6807" y1="25.9688" y2="36.6721" /><line stroke-linecap="round" stroke-width="0.5" x1="175.6807" x2="170.3657" y1="36.6721" y2="36.6721" /><line stroke-linecap="round" stroke-width="0.5" x1="170.3657" x2="170.3657" y1="36.6721" y2="25.9688" /><line stroke-linecap="round" stroke-width="0.5" x1="170.3657" x2="175.6807" y1="25.9688" y2="25.9688" /><text font-family="monospace" font-size="2" stroke-width="0.1" text-anchor="middle" x="173.023224117" y="31.3204031714">M20:R3</text><line stroke-linecap="round" stroke-width="0.5" x1="120.9733" x2="120.9733" y1="61.3357" y2="72.039" /><line stroke-linecap="round" stroke-width="0.5" x1="120.9733" x2="115.6583" y1="72.039" y2="72.039" /><line stroke-linecap="round" stroke-width="0.5" x1="115.6583" x2="115.6583" y1="72.039" y2="61.3357" /><line stroke-linecap="round" stroke-width="0.5" x1="115.6583" x2="120.9733" y1="61.3357" y2="61.3357" /><text font-family="monospace" font-size="2" stroke-width="0.1" text-anchor="middle" x="118.315821911" y="66.6873196297">M17:C10</text><line stroke-linecap="round" stroke-width="0.5" x1="26.472" x2="37.1753" y1="79.0193" y2="79.0193" /><line stroke-linecap="round" stroke-width="0.5" x1="37.1753" x2="37.1753" y1="79.0193" y2="84.3342" /><line stroke-linecap="round" stroke-width="0.5" x1="37.1753" x2="26.472" y1="84.3342" y2="84.3342" /><line stroke-linecap="round" stroke-width="0.5" x1="26.472" x2="26.472" y1="84.3342" y2="79.0193" /><text font-family="monospace" font-size="2" stroke-width="0.1" text-anchor="middle" x="31.823698041" y="81.6767661137">M10:C3</text><line stroke-linecap="round" stroke-width="0.5" x1="140.4248" x2="140.4248" y1="55.9017" y2="45.1984" /><line stroke-linecap="round" stroke-width="0.5" x1="140.4248" x2="145.7398" y1="45.1984" y2="45.1984" /><line stroke-linecap="round" stroke-width="0.5" x1="145.7398" x2="145.7398" y1="45.1984" y2="55.9017" /><line stroke-linecap="round" stroke-width="0.5" x1="145.7398" x2="140.4248" y1="55.9017" y2="55.9017" /><text font-family="monospace" font-size="2" stroke-width="0.1" text-anchor="middle" x="143.082279967" y="50.550075536">M4:R1</text><line stroke-linecap="round" stroke-width="0.5" x1="182.9103" x2="182.9103" y1="32.6125" y2="43.3158" /><line stroke-linecap="round" stroke-width="0.5" x1="182.9103" x2="177.5953" y1="43.3158" y2="43.3158" /><line stroke-linecap="round" stroke-width="0.5" x1="177.5953" x2="177.5953" y1="43.3158" y2="32.6125" /><line stroke-linecap="round" stroke-width="0.5" x1="177.5953" x2="182.9103" y1="32.6125" y2="32.6125" /><text font-family="monospace" font-size="2" stroke-width="0.1" text-anchor="middle" x="180.252828271" y="37.9641037964">M20:R1</text><line stroke-linecap="round" stroke-width="0.5" x1="138.3874" x2="138.3874" y1="25.8874" y2="36.5907" /><line stroke-linecap="round" stroke-width="0.5" x1="138.3874" x2="133.0724" y1="36.5907" y2="36.5907" /><line stroke-linecap="round" stroke-width="0.5" x1="133.0724" x2="133.0724" y1="36.5907" y2="25.8874" /><line stroke-linecap="round" stroke-width="0.5" x1="133.0724" x2="138.3874" y1="25.8874" y2="25.8874" /><text font-family="monospace" font-size="2" stroke-width="0.1" text-anchor="middle" x="135.729917942" y="31.239052386">M4:R2</text><line stroke-linecap="round" stroke-width="0.5" x1="215.2417" x2="215.2417" y1="46.5456" y2="70.3078" /><line stroke-linecap="round" stroke-width="0.5" x1="215.2417" x2="197.1709" y1="70.3078" y2="70.3078" /><line stroke-linecap="round" stroke-width="0.5" x1="197.1709" x2="197.1709" y1="70.3078" y2="46.5456" /><line stroke-linecap="round" stroke-width="0.5" x1="197.1709" x2="215.2417" y1="46.5456" y2="46.5456" /><text font-family="monospace" font-size="2" stroke-width="0.1" text-anchor="middle" x="206.206294172" y="58.4267052647">M21:U1</text><line stroke-linecap="round" stroke-width="0.5" x1="75.2646" x2="85.9679" y1="79.3546" y2="79.3546" /><line stroke-linecap="round" stroke-width="0.5" x1="85.9679" x2="85.9679" y1="79.3546" y2="84.6696" /><line stroke-linecap="round" stroke-width="0.5" x1="85.9679" x2="75.2646" y1="84.6696" y2="84.6696" /><line stroke-linecap="round" stroke-width="0.5" x1="75.2646" x2="75.2646" y1="84.6696" y2="79.3546" /><text font-family="monospace" font-size="2" stroke-width="0.1" text-anchor="middle" x="80.616293305" y="82.012125948">M17:C6</text><line stroke-linecap="round" stroke-width="0.5" x1="67.6465" x2="56.9432" y1="22.4327" y2="22.4327" /><line stroke-linecap="round" stroke-width="0.5" x1="56.9432" x2="56.9432" y1="22.4327" y2="17.1177" /><line stroke-linecap="round" stroke-width="0.5" x1="56.9432" x2="67.6465" y1="17.1177" y2="17.1177" /><line stroke-linecap="round" stroke-width="0.5" x1="67.6465" x2="67.6465" y1="17.1177" y2="22.4327" /><text font-family="monospace" font-size="2" stroke-width="0.1" text-anchor="middle" x="62.294880367" y="19.775196367">D3</text><line stroke-linecap="round" stroke-width="0.5" x1="123.8949" x2="134.5982" y1="58.1479" y2="58.1479" /><line stroke-linecap="round" stroke-width="0.5" x1="134.5982" x2="134.5982" y1="58.1479" y2="63.4628" /><line stroke-linecap="round" stroke-width="0.5" x1="134.5982" x2="123.8949" y1="63.4628" y2="63.4628" /><line stroke-linecap="round" stroke-width="0.5" x1="123.8949" x2="123.8949" y1="63.4628" y2="58.1479" /><text font-family="monospace" font-size="2" stroke-width="0.1" text-anchor="middle" x="129.246534242" y="60.8053343404">C6</text><line stroke-linecap="round" stroke-width="0.5" x1="202.1138" x2="202.1138" y1="25.9688" y2="36.6721" /><line stroke-linecap="round" stroke-width="0.5" x1="202.1138" x2="196.7988" y1="36.6721" y2="36.6721" /><line stroke-linecap="round" stroke-width="0.5" x1="196.7988" x2="196.7988" y1="36.6721" y2="25.9688" /><line stroke-linecap="round" stroke-width="0.5" x1="196.7988" x2="202.1138" y1="25.9688" y2="25.9688" /><text font-family="monospace" font-size="2" stroke-width="0.1" text-anchor="middle" x="199.456294337" y="31.3204031714">M21:R4</text><line stroke-linecap="round" stroke-width="0.5" x1="125.9858" x2="125.9858" y1="24.7877" y2="35.491" /><line stroke-linecap="round" stroke-width="0.5" x1="125.9858" x2="120.6709" y1="35.491" y2="35.491" /><line stroke-linecap="round" stroke-width="0.5" x1="120.6709" x2="120.6709" y1="35.491" y2="24.7877" /><line stroke-linecap="round" stroke-width="0.5" x1="120.6709" x2="125.9858" y1="24.7877" y2="24.7877" /><text font-family="monospace" font-size="2" stroke-width="0.1" text-anchor="middle" x="123.328343442" y="30.139369342">M5:C2</text><line stroke-linecap="round" stroke-width="0.5" x1="219.0875" x2="208.3842" y1="77.6491" y2="77.6491" /><line stroke-linecap="round" stroke-width="0.5" x1="208.3842" x2="208.3842" y1="77.6491" y2="72.3342" /><line stroke-linecap="round" stroke-width="0.5" x1="208.3842" x2="219.0875" y1="72.3342" y2="72.3342" /><line stroke-linecap="round" stroke-width="0.5" x1="219.0875" x2="219.0875" y1="72.3342" y2="77.6491" /><text font-family="monospace" font-size="2" stroke-width="0.1" text-anchor="middle" x="213.735821547" y="74.9916619464">M21:C4</text><line stroke-linecap="round" stroke-width="0.5" x1="107.386" x2="96.6827" y1="15.4346" y2="15.4346" /><line stroke-linecap="round" stroke-width="0.5" x1="96.6827" x2="96.6827" y1="15.4346" y2="10.1197" /><line stroke-linecap="round" stroke-width="0.5" x1="96.6827" x2="107.386" y1="10.1197" y2="10.1197" /><line stroke-linecap="round" stroke-width="0.5" x1="107.386" x2="107.386" y1="10.1197" y2="15.4346" /><text font-family="monospace" font-size="2" stroke-width="0.1" text-anchor="middle" x="102.034322703" y="12.777165042">R1</text><line stroke-linecap="round" stroke-width="0.5" x1="194.9917" x2="194.9917" y1="64.2732" y2="77.3834" /><line stroke-linecap="round" stroke-width="0.5" x1="194.9917" x2="189.1453" y1="77.3834" y2="77.3834" /><line stroke-linecap="round" stroke-width="0.5" x1="189.1453" x2="189.1453" y1="77.3834" y2="64.2732" /><line stroke-linecap="round" stroke-width="0.5" x1="189.1453" x2="194.9917" y1="64.2732" y2="64.2732" /><text font-family="monospace" font-size="2" stroke-width="0.1" text-anchor="middle" x="192.068499242" y="70.8282762214">M20:FB14</text><line stroke-linecap="round" stroke-width="0.5" x1="57.3709" x2="57.3709" y1="64.7955" y2="54.0922" /><line stroke-linecap="round" stroke-width="0.5" x1="57.3709" x2="62.6859" y1="54.0922" y2="54.0922" /><line stroke-linecap="round" stroke-width="0.5" x1="62.6859" x2="62.6859" y1="54.0922" y2="64.7955" /><line stroke-linecap="round" stroke-width="0.5" x1="62.6859" x2="57.3709" y1="64.7955" y2="64.7955" /><text font-family="monospace" font-size="2" stroke-width="0.1" text-anchor="middle" x="60.028421761" y="59.4438753186">M17:R2</text><line stroke-linecap="round" stroke-width="0.5" x1="45.4819" x2="45.4819" y1="60.5587" y2="71.262" /><line stroke-linecap="round" stroke-width="0.5" x1="45.4819" x2="40.1669" y1="71.262" y2="71.262" /><line stroke-linecap="round" stroke-width="0.5" x1="40.1669" x2="40.1669" y1="71.262" y2="60.5587" /><line stroke-linecap="round" stroke-width="0.5" x1="40.1669" x2="45.4819" y1="60.5587" y2="60.5587" /><text font-family="monospace" font-size="2" stroke-width="0.1" text-anchor="middle" x="42.824408402" y="65.9103078377">M10:C2</text><line stroke-linecap="round" stroke-width="0.5" x1="70.695" x2="59.9917" y1="84.6696" y2="84.6696" /><line stroke-linecap="round" stroke-width="0.5" x1="59.9917" x2="59.9917" y1="84.6696" y2="79.3546" /><line stroke-linecap="round" stroke-width="0.5" x1="59.9917" x2="70.695" y1="79.3546" y2="79.3546" /><line stroke-linecap="round" stroke-width="0.5" x1="70.695" x2="70.695" y1="79.3546" y2="84.6696" /><text font-family="monospace" font-size="2" stroke-width="0.1" text-anchor="middle" x="65.343382261" y="82.012125948">M17:C3</text><line stroke-linecap="round" stroke-width="0.5" x1="211.8224" x2="211.8224" y1="88.0193" y2="109.5626" /><line stroke-linecap="round" stroke-width="0.5" x1="211.8224" x2="28.2791" y1="109.5626" y2="109.5626" /><line stroke-linecap="round" stroke-width="0.5" x1="28.2791" x2="28.2791" y1="109.5626" y2="88.0193" /><line stroke-linecap="round" stroke-width="0.5" x1="28.2791" x2="211.8224" y1="88.0193" y2="88.0193" /><text font-family="monospace" font-size="2" stroke-width="0.1" text-anchor="middle" x="120.050784467" y="98.790942467">P1</text><line stroke-linecap="round" stroke-width="0.5" x1="63.0035" x2="63.0035" y1="39.3683" y2="28.665" /><line stroke-linecap="round" stroke-width="0.5" x1="63.0035" x2="68.3185" y1="28.665" y2="28.665" /><line stroke-linecap="round" stroke-width="0.5" x1="68.3185" x2="68.3185" y1="28.665" y2="39.3683" /><line stroke-linecap="round" stroke-width="0.5" x1="68.3185" x2="63.0035" y1="39.3683" y2="39.3683" /><text font-family="monospace" font-size="2" stroke-width="0.1" text-anchor="middle" x="65.661022017" y="34.0166755464">C1</text><line stroke-linecap="round" stroke-width="0.5" x1="218.6446" x2="218.6446" y1="43.3158" y2="32.6125" /><line stroke-linecap="round" stroke-width="0.5" x1="218.6446" x2="223.9595" y1="32.6125" y2="32.6125" /><line stroke-linecap="round" stroke-width="0.5" x1="223.9595" x2="223.9595" y1="32.6125" y2="43.3158" /><line stroke-linecap="round" stroke-width="0.5" x1="223.9595" x2="218.6446" y1="43.3158" y2="43.3158" /><text font-family="monospace" font-size="2" stroke-width="0.1" text-anchor="middle" x="221.302039866" y="37.9641037964">M21:C1</text><line stroke-linecap="round" stroke-width="0.5" x1="67.6465" x2="56.9432" y1="15.4346" y2="15.4346" /><line stroke-linecap="round" stroke-width="0.5" x1="56.9432" x2="56.9432" y1="15.4346" y2="10.1197" /><line stroke-linecap="round" stroke-width="0.5" x1="56.9432" x2="67.6465" y1="10.1197" y2="10.1197" /><line stroke-linecap="round" stroke-width="0.5" x1="67.6465" x2="67.6465" y1="10.1197" y2="15.4346" /><text font-family="monospace" font-size="2" stroke-width="0.1" text-anchor="middle" x="62.294880367" y="12.777165042">R3</text></g><g fill="blue" id="bottom_parts" stroke="blue" /></svg>